G04 EAGLE Gerber X2 export*
%TF.Part,Single*%
%TF.FileFunction,Copper,L2,Bot,Mixed*%
%TF.FilePolarity,Positive*%
%TF.GenerationSoftware,Autodesk,EAGLE,8.7.0*%
%TF.CreationDate,2018-11-07T22:53:50Z*%
G75*
%MOMM*%
%FSLAX34Y34*%
%LPD*%
%AMOC8*
5,1,8,0,0,1.08239X$1,22.5*%
G01*
%ADD10P,2.089446X8X112.500000*%
%ADD11C,1.790700*%
%ADD12P,1.924489X8X22.500000*%
%ADD13C,1.778000*%
%ADD14P,1.732040X8X202.500000*%
%ADD15P,1.924489X8X202.500000*%
%ADD16P,1.732040X8X22.500000*%
%ADD17C,1.320800*%
%ADD18C,1.981200*%
%ADD19P,1.814519X8X202.500000*%
%ADD20R,1.508000X1.508000*%
%ADD21C,1.508000*%
%ADD22P,1.429621X8X112.500000*%
%ADD23P,1.429621X8X202.500000*%
%ADD24P,1.429621X8X292.500000*%
%ADD25P,1.429621X8X22.500000*%
%ADD26R,2.500000X2.500000*%
%ADD27C,1.458000*%
%ADD28C,2.000000*%
%ADD29C,1.524000*%
%ADD30C,1.016000*%
%ADD31C,0.508000*%
%ADD32C,0.756400*%
%ADD33C,1.206400*%

G36*
X171131Y469531D02*
X171131Y469531D01*
X171182Y469533D01*
X171214Y469551D01*
X171250Y469559D01*
X171289Y469592D01*
X171334Y469616D01*
X171355Y469646D01*
X171383Y469669D01*
X171404Y469716D01*
X171434Y469758D01*
X171442Y469800D01*
X171454Y469828D01*
X171453Y469858D01*
X171461Y469900D01*
X171461Y473391D01*
X171687Y473391D01*
X173637Y473082D01*
X175514Y472472D01*
X177273Y471576D01*
X178597Y470613D01*
X178617Y470605D01*
X178633Y470591D01*
X178696Y470572D01*
X178757Y470546D01*
X178778Y470547D01*
X178799Y470541D01*
X178864Y470553D01*
X178930Y470557D01*
X178949Y470567D01*
X178970Y470571D01*
X179053Y470627D01*
X179080Y470643D01*
X179084Y470648D01*
X179090Y470652D01*
X190769Y482331D01*
X190809Y482396D01*
X190853Y482458D01*
X190855Y482470D01*
X190860Y482478D01*
X190864Y482515D01*
X190880Y482600D01*
X190880Y508000D01*
X190863Y508074D01*
X190850Y508149D01*
X190843Y508159D01*
X190841Y508169D01*
X190817Y508198D01*
X190769Y508269D01*
X165369Y533669D01*
X165304Y533709D01*
X165242Y533753D01*
X165230Y533755D01*
X165222Y533760D01*
X165185Y533764D01*
X165100Y533780D01*
X76200Y533780D01*
X76126Y533763D01*
X76051Y533750D01*
X76041Y533743D01*
X76031Y533741D01*
X76002Y533717D01*
X75931Y533669D01*
X37831Y495569D01*
X37818Y495547D01*
X37798Y495531D01*
X37772Y495474D01*
X37740Y495422D01*
X37737Y495396D01*
X37727Y495372D01*
X37729Y495311D01*
X37723Y495249D01*
X37732Y495225D01*
X37733Y495199D01*
X37763Y495145D01*
X37785Y495087D01*
X37804Y495070D01*
X37816Y495047D01*
X37867Y495012D01*
X37912Y494970D01*
X37937Y494962D01*
X37958Y494947D01*
X38042Y494931D01*
X38078Y494920D01*
X38088Y494922D01*
X38100Y494920D01*
X63500Y494920D01*
X63574Y494937D01*
X63649Y494950D01*
X63659Y494957D01*
X63669Y494959D01*
X63698Y494983D01*
X63769Y495031D01*
X76358Y507620D01*
X139543Y507620D01*
X152020Y495143D01*
X152020Y482600D01*
X152037Y482526D01*
X152050Y482451D01*
X152057Y482441D01*
X152059Y482431D01*
X152083Y482402D01*
X152131Y482331D01*
X163179Y471283D01*
X163197Y471272D01*
X163210Y471255D01*
X163270Y471227D01*
X163326Y471192D01*
X163347Y471190D01*
X163367Y471181D01*
X163433Y471182D01*
X163499Y471175D01*
X163519Y471183D01*
X163540Y471183D01*
X163631Y471226D01*
X163661Y471237D01*
X163665Y471241D01*
X163671Y471245D01*
X164127Y471576D01*
X165886Y472472D01*
X167763Y473082D01*
X169713Y473391D01*
X169939Y473391D01*
X169939Y469900D01*
X169950Y469850D01*
X169952Y469799D01*
X169970Y469767D01*
X169978Y469731D01*
X170011Y469692D01*
X170035Y469647D01*
X170065Y469626D01*
X170088Y469598D01*
X170135Y469577D01*
X170177Y469547D01*
X170219Y469539D01*
X170247Y469527D01*
X170277Y469528D01*
X170319Y469520D01*
X171081Y469520D01*
X171131Y469531D01*
G37*
G36*
X406450Y177431D02*
X406450Y177431D01*
X406501Y177433D01*
X406533Y177451D01*
X406569Y177459D01*
X406608Y177492D01*
X406653Y177516D01*
X406674Y177546D01*
X406702Y177569D01*
X406723Y177616D01*
X406753Y177658D01*
X406761Y177700D01*
X406773Y177728D01*
X406772Y177758D01*
X406780Y177800D01*
X406780Y190500D01*
X406763Y190574D01*
X406750Y190649D01*
X406743Y190659D01*
X406741Y190669D01*
X406717Y190698D01*
X406669Y190769D01*
X381269Y216169D01*
X381204Y216209D01*
X381142Y216253D01*
X381130Y216255D01*
X381122Y216260D01*
X381085Y216264D01*
X381000Y216280D01*
X368300Y216280D01*
X368250Y216269D01*
X368199Y216267D01*
X368167Y216249D01*
X368131Y216241D01*
X368092Y216208D01*
X368047Y216184D01*
X368026Y216154D01*
X367998Y216131D01*
X367977Y216084D01*
X367947Y216042D01*
X367939Y216000D01*
X367927Y215972D01*
X367928Y215942D01*
X367920Y215900D01*
X367920Y203200D01*
X367937Y203126D01*
X367950Y203051D01*
X367957Y203041D01*
X367959Y203031D01*
X367983Y203002D01*
X368031Y202931D01*
X393431Y177531D01*
X393496Y177491D01*
X393558Y177447D01*
X393570Y177445D01*
X393578Y177440D01*
X393615Y177436D01*
X393700Y177420D01*
X406400Y177420D01*
X406450Y177431D01*
G37*
D10*
X88900Y25400D03*
X215900Y25400D03*
D11*
X59754Y266300D02*
X41847Y266300D01*
X41847Y216300D02*
X59754Y216300D01*
D12*
X280670Y633730D03*
D13*
X255270Y633730D03*
D14*
X449580Y156210D03*
X424180Y156210D03*
D15*
X419100Y685800D03*
D13*
X444500Y685800D03*
D16*
X254000Y457200D03*
X279400Y457200D03*
D11*
X59754Y367900D02*
X41847Y367900D01*
X41847Y317900D02*
X59754Y317900D01*
D17*
X596900Y717296D02*
X596900Y730504D01*
X596900Y654304D02*
X596900Y641096D01*
D10*
X152400Y25400D03*
D18*
X834644Y680720D02*
X854456Y680720D01*
X834136Y740410D02*
X814324Y740410D01*
X814324Y621030D02*
X834136Y621030D01*
X712216Y621030D02*
X692404Y621030D01*
X692404Y740410D02*
X712216Y740410D01*
D19*
X939800Y50800D03*
X914400Y50800D03*
X939800Y139700D03*
X914400Y139700D03*
X939800Y215900D03*
X914400Y215900D03*
D11*
X923354Y526180D02*
X905447Y526180D01*
X905447Y576180D02*
X923354Y576180D01*
D20*
X588010Y300990D03*
D21*
X613410Y300990D03*
X638810Y300990D03*
X664210Y300990D03*
X689610Y300990D03*
X715010Y300990D03*
X740410Y300990D03*
X765810Y300990D03*
X791210Y300990D03*
X816610Y300990D03*
X842010Y300990D03*
X867410Y300990D03*
X588010Y453390D03*
X613410Y453390D03*
X638810Y453390D03*
X664210Y453390D03*
X689610Y453390D03*
X715010Y453390D03*
X765810Y453390D03*
X791210Y453390D03*
X842010Y453390D03*
X867410Y453390D03*
X816610Y453390D03*
X740410Y453390D03*
X892810Y300990D03*
X918210Y300990D03*
X943610Y300990D03*
X892810Y453390D03*
X918210Y453390D03*
X943610Y453390D03*
D20*
X562610Y402590D03*
D21*
X588010Y402590D03*
X562610Y377190D03*
X588010Y377190D03*
X562610Y351790D03*
X588010Y351790D03*
D17*
X165100Y152400D02*
X151892Y152400D01*
X151892Y127000D02*
X165100Y127000D01*
X241300Y127000D02*
X254508Y127000D01*
X254508Y152400D02*
X241300Y152400D01*
X165100Y101600D02*
X151892Y101600D01*
X241300Y101600D02*
X254508Y101600D01*
X165100Y254000D02*
X151892Y254000D01*
X151892Y228600D02*
X165100Y228600D01*
X241300Y228600D02*
X254508Y228600D01*
X254508Y254000D02*
X241300Y254000D01*
X165100Y203200D02*
X151892Y203200D01*
X241300Y203200D02*
X254508Y203200D01*
X165100Y355600D02*
X151892Y355600D01*
X151892Y330200D02*
X165100Y330200D01*
X241300Y330200D02*
X254508Y330200D01*
X254508Y355600D02*
X241300Y355600D01*
X165100Y304800D02*
X151892Y304800D01*
X241300Y304800D02*
X254508Y304800D01*
D11*
X59754Y419500D02*
X41847Y419500D01*
X41847Y469500D02*
X59754Y469500D01*
D22*
X127000Y88900D03*
X127000Y165100D03*
D23*
X872490Y186690D03*
X796290Y186690D03*
D24*
X279400Y165100D03*
X279400Y88900D03*
D22*
X127000Y190500D03*
X127000Y266700D03*
D24*
X279400Y266700D03*
X279400Y190500D03*
D22*
X127000Y292100D03*
X127000Y368300D03*
D24*
X280670Y368300D03*
X280670Y292100D03*
D23*
X844550Y549910D03*
X768350Y549910D03*
X875030Y25400D03*
X798830Y25400D03*
X872490Y102870D03*
X796290Y102870D03*
D11*
X59754Y164700D02*
X41847Y164700D01*
X41847Y114700D02*
X59754Y114700D01*
D25*
X671830Y523240D03*
X697230Y523240D03*
X697230Y548640D03*
D26*
X518160Y604520D03*
X345440Y604520D03*
X345440Y208280D03*
X518160Y208280D03*
D17*
X209804Y596900D02*
X196596Y596900D01*
X196596Y622300D02*
X209804Y622300D01*
X133604Y622300D02*
X120396Y622300D01*
X120396Y596900D02*
X133604Y596900D01*
X196596Y647700D02*
X209804Y647700D01*
X209804Y673100D02*
X196596Y673100D01*
X133604Y647700D02*
X120396Y647700D01*
X120396Y673100D02*
X133604Y673100D01*
D27*
X369730Y120750D02*
X369730Y106170D01*
X389730Y106170D02*
X389730Y120750D01*
X344730Y120750D02*
X344730Y106170D01*
X414730Y106170D02*
X414730Y120750D01*
D11*
X59554Y695160D02*
X41647Y695160D01*
X41647Y645160D02*
X59554Y645160D01*
X59554Y595160D02*
X41647Y595160D01*
D28*
X170700Y460850D02*
X170700Y440850D01*
X109700Y440850D02*
X109700Y460850D01*
X129700Y402850D02*
X149700Y402850D01*
D29*
X673100Y248920D02*
X673100Y233680D01*
X647700Y233680D02*
X647700Y248920D01*
X622300Y248920D02*
X622300Y233680D01*
X596900Y233680D02*
X596900Y248920D01*
X571500Y248920D02*
X571500Y233680D01*
X749300Y185420D02*
X749300Y170180D01*
X723900Y170180D02*
X723900Y185420D01*
X698500Y185420D02*
X698500Y170180D01*
X673100Y170180D02*
X673100Y185420D01*
X647700Y185420D02*
X647700Y170180D01*
X622300Y170180D02*
X622300Y185420D01*
X596900Y185420D02*
X596900Y170180D01*
X571500Y170180D02*
X571500Y185420D01*
X673100Y109220D02*
X673100Y93980D01*
X647700Y93980D02*
X647700Y109220D01*
X622300Y109220D02*
X622300Y93980D01*
X596900Y93980D02*
X596900Y109220D01*
X571500Y109220D02*
X571500Y93980D01*
X843280Y480060D02*
X843280Y495300D01*
X817880Y495300D02*
X817880Y480060D01*
X792480Y480060D02*
X792480Y495300D01*
X767080Y495300D02*
X767080Y480060D01*
D30*
X127000Y88900D02*
X101200Y114700D01*
X50800Y114700D01*
X50800Y164700D02*
X25400Y190100D01*
X25400Y190500D01*
X15240Y200660D01*
X15240Y215900D01*
X15240Y279400D01*
X15240Y381000D01*
X15240Y444500D01*
X40240Y469500D01*
X50800Y469500D01*
X50800Y495300D01*
X76200Y520700D01*
X139700Y520700D01*
X37700Y381000D02*
X50800Y367900D01*
X37700Y381000D02*
X15240Y381000D01*
X38100Y279000D02*
X50800Y266300D01*
X38100Y279000D02*
X38100Y279400D01*
X15240Y279400D01*
X76200Y38100D02*
X88900Y25400D01*
X170700Y450850D02*
X247650Y450850D01*
X254000Y457200D01*
X170700Y450850D02*
X170700Y489700D01*
X139700Y520700D01*
X15240Y88900D02*
X20640Y83500D01*
X62550Y83500D01*
X76200Y69850D01*
X15240Y88900D02*
X15240Y200660D01*
X76200Y69850D02*
X76200Y38100D01*
X127000Y165100D02*
X152400Y165100D01*
X165100Y152400D01*
X101324Y444889D02*
X109700Y450850D01*
X101324Y444889D02*
X65650Y419500D01*
X50800Y419500D01*
X182880Y55880D02*
X152400Y25400D01*
X182880Y109220D02*
X165100Y127000D01*
X182880Y109220D02*
X182880Y55880D01*
X182880Y210820D02*
X165100Y228600D01*
X182880Y210820D02*
X182880Y109220D01*
X182880Y312420D02*
X165100Y330200D01*
X182880Y312420D02*
X182880Y210820D01*
X302260Y165100D02*
X345440Y208280D01*
X302260Y165100D02*
X279400Y165100D01*
X372110Y208280D02*
X424180Y156210D01*
X372110Y208280D02*
X345440Y208280D01*
X165100Y330200D02*
X127000Y330200D01*
X279400Y457200D02*
X280670Y455930D01*
X280670Y368300D01*
X345440Y604520D02*
X316230Y633730D01*
X280670Y633730D01*
X266700Y673100D02*
X203200Y673100D01*
X280670Y659130D02*
X280670Y633730D01*
X280670Y659130D02*
X266700Y673100D01*
X181140Y695160D02*
X50600Y695160D01*
X181140Y695160D02*
X203200Y673100D01*
X424180Y156210D02*
X414730Y146760D01*
X414730Y113460D01*
X613410Y351790D02*
X613410Y453390D01*
X613410Y351790D02*
X664210Y300990D01*
X664210Y275590D01*
X673100Y266700D01*
X673100Y241300D01*
X139700Y402850D02*
X109700Y432850D01*
X109700Y450850D01*
X101600Y355600D02*
X127000Y330200D01*
X101600Y355600D02*
X101600Y444612D01*
X101324Y444889D01*
X414730Y113460D02*
X481760Y113460D01*
X495300Y127000D01*
X660400Y127000D02*
X673100Y114300D01*
X673100Y101600D01*
X660400Y127000D02*
X495300Y127000D01*
X345440Y604520D02*
X350520Y609600D01*
X381000Y609600D01*
X419100Y647700D01*
X419100Y685800D01*
X228600Y330200D02*
X215900Y317500D01*
X228600Y330200D02*
X241300Y330200D01*
X241300Y127000D02*
X228600Y127000D01*
X215900Y139700D01*
X215900Y241300D01*
X215900Y317500D01*
X215900Y139700D02*
X215900Y25400D01*
X466090Y156210D02*
X518160Y208280D01*
X466090Y156210D02*
X449580Y156210D01*
X331190Y127000D02*
X241300Y127000D01*
X331190Y127000D02*
X344730Y113460D01*
X241300Y228600D02*
X228600Y228600D01*
X215900Y241300D01*
D31*
X581980Y34715D02*
X601135Y15560D01*
X581980Y91120D02*
X571500Y101600D01*
X601135Y15560D02*
X606740Y15560D01*
X609600Y12700D01*
X581980Y34715D02*
X581980Y91120D01*
X609600Y12700D02*
X786130Y12700D01*
X798830Y25400D01*
D30*
X254000Y292100D02*
X241300Y304800D01*
X254000Y292100D02*
X280670Y292100D01*
D32*
X698500Y330200D03*
D31*
X683260Y330200D01*
X633730Y379730D01*
X633730Y420370D01*
D32*
X633730Y420370D03*
X330200Y299720D03*
D31*
X322580Y292100D01*
X280670Y292100D01*
D30*
X51200Y215900D02*
X50800Y216300D01*
X51200Y215900D02*
X101600Y215900D01*
X127000Y190500D01*
X127000Y266700D02*
X152400Y266700D01*
X165100Y254000D01*
X101200Y317900D02*
X50800Y317900D01*
X101200Y317900D02*
X127000Y292100D01*
X165100Y355600D02*
X152400Y368300D01*
X127000Y368300D01*
D32*
X279400Y317500D03*
D31*
X330200Y317500D01*
X400050Y387350D01*
X538480Y387350D01*
D32*
X538480Y387350D03*
X646430Y389890D03*
D31*
X676910Y389890D01*
X765810Y300990D01*
D32*
X279400Y279400D03*
D31*
X756920Y266700D02*
X791210Y300990D01*
X756920Y266700D02*
X716280Y266700D01*
X704850Y278130D01*
X702310Y280670D01*
X702310Y311150D01*
X695960Y317500D01*
X673100Y317500D01*
X629920Y360680D01*
D32*
X629920Y360680D03*
X330200Y279400D03*
D31*
X279400Y279400D01*
D30*
X241300Y101600D02*
X254000Y88900D01*
X279400Y88900D01*
D32*
X546100Y190500D03*
D31*
X558800Y203200D01*
X660400Y203200D01*
X689610Y262890D02*
X689610Y300990D01*
X689610Y262890D02*
X698500Y254000D01*
X698500Y241300D01*
X660400Y203200D01*
D30*
X254000Y190500D02*
X241300Y203200D01*
X254000Y190500D02*
X279400Y190500D01*
D31*
X317500Y228600D01*
X341826Y228600D01*
X344126Y226300D01*
X467600Y226300D01*
X482600Y241300D01*
X533400Y241300D01*
X558800Y215900D02*
X647700Y215900D01*
D32*
X647700Y215900D03*
D31*
X558800Y215900D02*
X533400Y241300D01*
D30*
X697230Y548640D02*
X774700Y626110D01*
X774700Y711200D01*
X803910Y740410D01*
X824230Y740410D01*
D31*
X844550Y549910D02*
X880110Y514350D01*
X816610Y334010D02*
X816610Y300990D01*
X880110Y397510D02*
X880110Y514350D01*
X880110Y397510D02*
X816610Y334010D01*
X875030Y25400D02*
X914400Y25400D01*
X939800Y50800D01*
X902970Y102870D02*
X872490Y102870D01*
X902970Y102870D02*
X939800Y139700D01*
X910590Y186690D02*
X872490Y186690D01*
X910590Y186690D02*
X939800Y215900D01*
X622300Y177800D02*
X622300Y165100D01*
X647700Y139700D02*
X774700Y139700D01*
X796290Y161290D01*
X796290Y186690D01*
X647700Y139700D02*
X622300Y165100D01*
D30*
X74260Y571500D02*
X50600Y595160D01*
X74260Y571500D02*
X139700Y571500D01*
X152400Y584200D01*
X152400Y622300D01*
X177800Y647700D01*
X203200Y647700D01*
X78540Y673100D02*
X50600Y645160D01*
X78540Y673100D02*
X127000Y673100D01*
X589280Y248920D02*
X596900Y241300D01*
X585724Y252476D01*
X585724Y254812D01*
X584200Y256336D01*
X584200Y266700D01*
X573405Y277495D01*
X509905Y277495D01*
X508000Y279400D01*
X508000Y375920D01*
D33*
X508000Y375920D03*
X508000Y405130D03*
D30*
X508000Y419100D01*
X520700Y431800D01*
D33*
X596900Y431800D03*
D30*
X550973Y431800D02*
X520700Y431800D01*
X550973Y431800D02*
X552878Y429895D01*
X572342Y429895D01*
X574247Y431800D01*
X596900Y431800D01*
D33*
X698500Y431800D03*
D30*
X863600Y431800D01*
D33*
X863600Y431800D03*
D31*
X892810Y300990D02*
X892810Y283210D01*
X876300Y266700D01*
X800100Y266700D01*
X723900Y190500D01*
X723900Y177800D01*
D32*
X627380Y283210D03*
D31*
X622300Y278130D01*
X622300Y241300D01*
X647700Y241300D02*
X647700Y279400D01*
D32*
X647700Y279400D03*
X838200Y254000D03*
D31*
X876300Y254000D01*
X918210Y295910D02*
X918210Y300990D01*
X918210Y295910D02*
X876300Y254000D01*
X673100Y203200D02*
X647700Y177800D01*
X673100Y203200D02*
X711200Y203200D01*
X749300Y241300D01*
D32*
X749300Y241300D03*
X825500Y241300D03*
D31*
X883920Y241300D01*
X943610Y300990D01*
X800100Y279400D02*
X698500Y177800D01*
X800100Y279400D02*
X876300Y279400D01*
X880110Y283210D01*
X943610Y448310D02*
X943610Y453390D01*
X880110Y384810D02*
X880110Y283210D01*
X880110Y384810D02*
X943610Y448310D01*
M02*
