M48
;GenerationSoftware,Autodesk,EAGLE,8.7.0*%
;CreationDate,2018-11-07T22:53:50Z*%
FMAT,2
ICI,OFF
METRIC,TZ,000.000
T13C0.350
T12C0.800
T11C0.813
T10C0.950
T9C1.000
T8C1.016
T7C1.194
T6C1.321
T5C1.500
T4C1.651
T3C2.300
T2C3.000
T1C4.000
%
G90
M71
T1
X3429Y4826
X61468Y53848
X3429Y53721
X61468Y4826
T2
X50800Y55118
X35560Y25400
T3
X44543Y8636
X31403Y8636
T4
X56261Y45339
X96901Y30099
X56261Y30099
X96901Y45339
T5
X51816Y60452
X34544Y60452
X34544Y20828
X51816Y20828
T6
X70231Y74041
X70231Y62103
X82423Y62103
X84455Y68072
X82423Y74041
T7
X5080Y16470
X5080Y46950
X91440Y52618
X91440Y57618
X5080Y41950
X5060Y69516
X5080Y11470
X5080Y31790
X5060Y64516
X5080Y26630
X5080Y21630
X5060Y59516
X5080Y36790
T8
X79248Y48768
X84328Y48768
X69850Y17780
X74930Y17780
X57150Y24130
X59690Y24130
X62230Y24130
X64770Y24130
X67310Y24130
X67310Y17780
X64770Y17780
X8890Y2540
X21590Y2540
X62230Y17780
X59690Y17780
X15240Y2540
X57150Y17780
X81788Y48768
X67310Y10160
X64770Y10160
X62230Y10160
X59690Y10160
X57150Y10160
X76708Y48768
X72390Y17780
T9
X58801Y35179
X58801Y40259
X17070Y45085
X10970Y45085
X13970Y40285
X58801Y30099
X61341Y30099
X63881Y30099
X66421Y30099
X68961Y30099
X71501Y30099
X74041Y30099
X76581Y30099
X81661Y30099
X84201Y30099
X86741Y30099
X58801Y45339
X61341Y45339
X63881Y45339
X66421Y45339
X68961Y45339
X71501Y45339
X76581Y45339
X79121Y45339
X84201Y45339
X86741Y45339
X81661Y45339
X74041Y45339
X89281Y30099
X91821Y30099
X94361Y30099
X89281Y45339
X91821Y45339
X94361Y45339
X56261Y40259
X79121Y30099
X56261Y37719
X58801Y37719
X56261Y35179
T10
X38973Y11346
X36973Y11346
X41473Y11346
X34473Y11346
T11
X16510Y20320
X67183Y52324
X16510Y10160
X24130Y10160
X16510Y25400
X16510Y22860
X24130Y22860
X24130Y25400
X12700Y16510
X24130Y20320
X16510Y35560
X16510Y33020
X24130Y33020
X24130Y35560
X16510Y30480
X24130Y30480
X16510Y15240
X91440Y21590
X12700Y8890
X87249Y18669
X79629Y18669
X27940Y16510
X27940Y8890
X12700Y19050
X12700Y26670
X27940Y26670
X27940Y19050
X12700Y29210
X12700Y36830
X28067Y36830
X28067Y29210
X84455Y54991
X76835Y54991
X87503Y2540
X79883Y2540
X87249Y10287
X79629Y10287
X93980Y21590
X91440Y13970
X93980Y13970
X69723Y52324
X69723Y54864
X91440Y5080
X93980Y5080
X59690Y64770
X59690Y72390
X20320Y59690
X20320Y62230
X12700Y62230
X12700Y59690
X20320Y64770
X20320Y67310
X12700Y64770
X12700Y67310
X27940Y45720
X25400Y45720
X16510Y12700
X24130Y12700
X24130Y15240
X44450Y68580
X41910Y68580
X42418Y15621
X44958Y15621
X25527Y63373
X28067Y63373
T12
X86360Y43180
X69850Y43180
X59690Y43180
X50800Y40513
X50800Y37592
T13
X33020Y29972
X53848Y38735
X27940Y31750
X69850Y33020
X63373Y42037
X82550Y24130
X74930Y24130
X83820Y25400
X64770Y27940
X64643Y38989
X64770Y21590
X54610Y19050
X33020Y27940
X62992Y36068
X27940Y27940
X62738Y28321
M30