G04 EAGLE Gerber X2 export*
%TF.Part,Single*%
%TF.FileFunction,Soldermask,Top,1*%
%TF.FilePolarity,Negative*%
%TF.GenerationSoftware,Autodesk,EAGLE,8.7.0*%
%TF.CreationDate,2018-11-07T22:53:50Z*%
G75*
%MOMM*%
%FSLAX34Y34*%
%LPD*%
%AMOC8*
5,1,8,0,0,1.08239X$1,22.5*%
G01*
%ADD10C,4.203191*%
%ADD11P,2.309387X8X112.500000*%
%ADD12C,1.993900*%
%ADD13P,2.144431X8X22.500000*%
%ADD14C,1.981200*%
%ADD15P,1.951982X8X202.500000*%
%ADD16P,2.144431X8X202.500000*%
%ADD17P,1.951982X8X22.500000*%
%ADD18C,1.524000*%
%ADD19C,2.184400*%
%ADD20P,2.034460X8X202.500000*%
%ADD21R,1.711200X1.711200*%
%ADD22C,1.711200*%
%ADD23C,1.854200*%
%ADD24P,1.649562X8X112.500000*%
%ADD25P,1.649562X8X202.500000*%
%ADD26P,1.649562X8X292.500000*%
%ADD27P,1.649562X8X22.500000*%
%ADD28R,2.703200X2.703200*%
%ADD29C,3.203200*%
%ADD30C,1.661200*%
%ADD31C,2.503200*%
%ADD32C,2.203200*%
%ADD33C,1.727200*%
%ADD34C,0.959600*%
%ADD35C,1.409600*%


D10*
X34290Y48260D03*
X614680Y48260D03*
X34290Y537210D03*
X614680Y538480D03*
D11*
X88900Y25400D03*
X215900Y25400D03*
D12*
X59754Y266300D02*
X41847Y266300D01*
X41847Y216300D02*
X59754Y216300D01*
D13*
X280670Y633730D03*
D14*
X255270Y633730D03*
D15*
X449580Y156210D03*
X424180Y156210D03*
D16*
X419100Y685800D03*
D14*
X444500Y685800D03*
D17*
X254000Y457200D03*
X279400Y457200D03*
D12*
X59754Y367900D02*
X41847Y367900D01*
X41847Y317900D02*
X59754Y317900D01*
D18*
X596900Y717296D02*
X596900Y730504D01*
X596900Y654304D02*
X596900Y641096D01*
D11*
X152400Y25400D03*
D19*
X834644Y680720D02*
X854456Y680720D01*
X834136Y740410D02*
X814324Y740410D01*
X814324Y621030D02*
X834136Y621030D01*
X712216Y621030D02*
X692404Y621030D01*
X692404Y740410D02*
X712216Y740410D01*
D20*
X939800Y50800D03*
X914400Y50800D03*
X939800Y139700D03*
X914400Y139700D03*
X939800Y215900D03*
X914400Y215900D03*
D12*
X923354Y526180D02*
X905447Y526180D01*
X905447Y576180D02*
X923354Y576180D01*
D21*
X588010Y300990D03*
D22*
X613410Y300990D03*
X638810Y300990D03*
X664210Y300990D03*
X689610Y300990D03*
X715010Y300990D03*
X740410Y300990D03*
X765810Y300990D03*
X791210Y300990D03*
X816610Y300990D03*
X842010Y300990D03*
X867410Y300990D03*
X588010Y453390D03*
X613410Y453390D03*
X638810Y453390D03*
X664210Y453390D03*
X689610Y453390D03*
X715010Y453390D03*
X765810Y453390D03*
X791210Y453390D03*
X842010Y453390D03*
X867410Y453390D03*
X816610Y453390D03*
X740410Y453390D03*
X892810Y300990D03*
X918210Y300990D03*
X943610Y300990D03*
X892810Y453390D03*
X918210Y453390D03*
X943610Y453390D03*
D23*
X969010Y300990D03*
X969010Y453390D03*
X562610Y453390D03*
X562610Y300990D03*
D21*
X562610Y402590D03*
D22*
X588010Y402590D03*
X562610Y377190D03*
X588010Y377190D03*
X562610Y351790D03*
X588010Y351790D03*
D18*
X165100Y152400D02*
X151892Y152400D01*
X151892Y127000D02*
X165100Y127000D01*
X241300Y127000D02*
X254508Y127000D01*
X254508Y152400D02*
X241300Y152400D01*
X165100Y101600D02*
X151892Y101600D01*
X241300Y101600D02*
X254508Y101600D01*
X165100Y254000D02*
X151892Y254000D01*
X151892Y228600D02*
X165100Y228600D01*
X241300Y228600D02*
X254508Y228600D01*
X254508Y254000D02*
X241300Y254000D01*
X165100Y203200D02*
X151892Y203200D01*
X241300Y203200D02*
X254508Y203200D01*
X165100Y355600D02*
X151892Y355600D01*
X151892Y330200D02*
X165100Y330200D01*
X241300Y330200D02*
X254508Y330200D01*
X254508Y355600D02*
X241300Y355600D01*
X165100Y304800D02*
X151892Y304800D01*
X241300Y304800D02*
X254508Y304800D01*
D12*
X59754Y419500D02*
X41847Y419500D01*
X41847Y469500D02*
X59754Y469500D01*
D24*
X127000Y88900D03*
X127000Y165100D03*
D25*
X872490Y186690D03*
X796290Y186690D03*
D26*
X279400Y165100D03*
X279400Y88900D03*
D24*
X127000Y190500D03*
X127000Y266700D03*
D26*
X279400Y266700D03*
X279400Y190500D03*
D24*
X127000Y292100D03*
X127000Y368300D03*
D26*
X280670Y368300D03*
X280670Y292100D03*
D25*
X844550Y549910D03*
X768350Y549910D03*
X875030Y25400D03*
X798830Y25400D03*
X872490Y102870D03*
X796290Y102870D03*
D12*
X59754Y164700D02*
X41847Y164700D01*
X41847Y114700D02*
X59754Y114700D01*
D27*
X671830Y523240D03*
X697230Y523240D03*
X697230Y548640D03*
D28*
X518160Y604520D03*
X345440Y604520D03*
X345440Y208280D03*
X518160Y208280D03*
D29*
X508000Y551180D03*
X355600Y254000D03*
D18*
X209804Y596900D02*
X196596Y596900D01*
X196596Y622300D02*
X209804Y622300D01*
X133604Y622300D02*
X120396Y622300D01*
X120396Y596900D02*
X133604Y596900D01*
X196596Y647700D02*
X209804Y647700D01*
X209804Y673100D02*
X196596Y673100D01*
X133604Y647700D02*
X120396Y647700D01*
X120396Y673100D02*
X133604Y673100D01*
D30*
X369730Y120750D02*
X369730Y106170D01*
X389730Y106170D02*
X389730Y120750D01*
X344730Y120750D02*
X344730Y106170D01*
X414730Y106170D02*
X414730Y120750D01*
D31*
X314030Y86360D03*
X445430Y86360D03*
D12*
X59554Y695160D02*
X41647Y695160D01*
X41647Y645160D02*
X59554Y645160D01*
X59554Y595160D02*
X41647Y595160D01*
D32*
X170700Y460850D02*
X170700Y440850D01*
X109700Y440850D02*
X109700Y460850D01*
X129700Y402850D02*
X149700Y402850D01*
D33*
X673100Y248920D02*
X673100Y233680D01*
X647700Y233680D02*
X647700Y248920D01*
X622300Y248920D02*
X622300Y233680D01*
X596900Y233680D02*
X596900Y248920D01*
X571500Y248920D02*
X571500Y233680D01*
X749300Y185420D02*
X749300Y170180D01*
X723900Y170180D02*
X723900Y185420D01*
X698500Y185420D02*
X698500Y170180D01*
X673100Y170180D02*
X673100Y185420D01*
X647700Y185420D02*
X647700Y170180D01*
X622300Y170180D02*
X622300Y185420D01*
X596900Y185420D02*
X596900Y170180D01*
X571500Y170180D02*
X571500Y185420D01*
X673100Y109220D02*
X673100Y93980D01*
X647700Y93980D02*
X647700Y109220D01*
X622300Y109220D02*
X622300Y93980D01*
X596900Y93980D02*
X596900Y109220D01*
X571500Y109220D02*
X571500Y93980D01*
X843280Y480060D02*
X843280Y495300D01*
X817880Y495300D02*
X817880Y480060D01*
X792480Y480060D02*
X792480Y495300D01*
X767080Y495300D02*
X767080Y480060D01*
D34*
X698500Y330200D03*
X633730Y420370D03*
X330200Y299720D03*
X279400Y317500D03*
X538480Y387350D03*
X646430Y389890D03*
X279400Y279400D03*
X629920Y360680D03*
X330200Y279400D03*
X546100Y190500D03*
X647700Y215900D03*
D35*
X508000Y375920D03*
X508000Y405130D03*
X596900Y431800D03*
X698500Y431800D03*
X863600Y431800D03*
D34*
X627380Y283210D03*
X647700Y279400D03*
X838200Y254000D03*
X749300Y241300D03*
X825500Y241300D03*
M02*
